# xmcd
#
# Track frame offsets:
#	150
#	18300
#	30944
#	47252
#	63872
#	75732
#	92031
#	107225
#	124319
#	140337
#	158821
#
# Disc length: 2366 seconds
# Revision: 0
# Processed by: cddbd v1.5.2PL0 Copyright (c) Steve Scherf et al.
# Submitted via: dBpowerAMP V12.0
#
DISCID=7f093c0b
DTITLE=Hadden Sayers - Acoustic Dopamine
DYEAR=2018
DGENRE=Blues Rock
TTITLE0=Dopamine Machine
TTITLE1=Learning To Disappear
TTITLE2=Unsatisfied
TTITLE3=Peppermint Patty
TTITLE4=I Feel Love
TTITLE5=Waiting Wanting [feat Ruthie Foster]
TTITLE6=Good Good Girl
TTITLE7=Blood Red Coup DeVille
TTITLE8=Hit The Road
TTITLE9=Backbreaker
TTITLE10=Gravity
EXTD=
EXTT0=
EXTT1=
EXTT2=
EXTT3=
EXTT4=
EXTT5=
EXTT6=
EXTT7=
EXTT8=
EXTT9=
EXTT10=
PLAYORDER=
